<?xml version="1.0" encoding="UTF-8" standalone="no"?>
<svg
   version="1.0"
   width="287"
   height="347"
   viewBox="0 0 215.25 260.25"
   preserveAspectRatio="xMidYMid meet"
   id="svg79"
   sodipodi:docname="3.svg"
   inkscape:version="1.1 (c68e22c387, 2021-05-23)"
   xmlns:inkscape="http://www.inkscape.org/namespaces/inkscape"
   xmlns:sodipodi="http://sodipodi.sourceforge.net/DTD/sodipodi-0.dtd"
   xmlns="http://www.w3.org/2000/svg"
   xmlns:svg="http://www.w3.org/2000/svg">
  <defs
     id="defs83" />
  <sodipodi:namedview
     id="namedview81"
     pagecolor="#ffffff"
     bordercolor="#666666"
     borderopacity="1.0"
     inkscape:pageshadow="2"
     inkscape:pageopacity="0.0"
     inkscape:pagecheckerboard="0"
     inkscape:document-units="px"
     showgrid="false"
     units="px"
     inkscape:showpageshadow="false"
     inkscape:zoom="0.87885424"
     inkscape:cx="442.05283"
     inkscape:cy="256.58407"
     inkscape:window-width="1366"
     inkscape:window-height="705"
     inkscape:window-x="-8"
     inkscape:window-y="-8"
     inkscape:window-maximized="1"
     inkscape:current-layer="g77" />
  <metadata
     id="metadata9">
Created by potrace 1.10, written by Peter Selinger 2001-2011
</metadata>
  <g
     transform="matrix(0.1,0,0,-0.1,0,1194)"
     fill="#000000"
     stroke="none"
     id="g77">
    <path
       d="m 274.91055,11776.009 c -0.47295,-0.483 -0.94614,-169.411 -0.94614,-375.449 v -374.243 h 93.43368 93.43358 v 277.85 c 0,152.542 0.94624,279.056 1.89238,280.744 1.65571,2.409 57.95261,3.132 273.91442,3.614 l 271.78513,0.482 v 92.778 92.776 l -366.16495,1.206 c -201.53289,0.724 -366.87489,0.724 -367.3481,0.242 z"
       id="path11"
       style="fill:#0066ff;stroke-width:1" />
    <path
       d="m 1154.8424,11776.009 c -0.4729,-0.483 -0.9461,-43.137 -0.9461,-94.707 v -93.501 h 273.6777 c 256.8836,0 274.1511,-0.242 276.9893,-4.096 2.3656,-3.133 2.8385,-61.69 2.8385,-280.259 v -275.924 h 92.724 c 72.8546,0 92.9605,0.724 92.7241,3.132 -0.2352,1.446 -0.4732,169.892 -0.4732,374.003 l -0.4729,371.11 -368.0575,0.481 c -202.4792,0.483 -368.5307,0.243 -369.0039,-0.239 z"
       id="path13"
       style="fill:#0066ff;stroke-width:1" />
    <path
       d="m 871.23023,11298.865 c -11.35406,-2.409 -26.01968,-8.673 -34.77181,-15.179 -6.15,-4.339 -6.62295,-6.025 -6.62295,-20.245 0,-15.903 2.12864,-18.553 9.22516,-12.048 2.12863,1.929 10.40755,6.749 18.45022,10.845 27.20215,13.737 57.71565,8.915 69.30638,-11.085 3.54808,-6.265 4.73057,-12.533 4.73057,-25.545 0,-26.748 -7.80571,-38.317 -65.75794,-98.078 l -48.01799,-49.402 0.70955,-15.665 0.70955,-15.662 69.77959,-0.725 c 38.31962,-0.241 72.14492,0 75.22005,0.725 4.49431,1.204 5.2039,2.891 5.2039,13.494 0,22.653 1.65567,21.93 -51.80234,21.206 -25.78309,-0.24 -48.25433,0.242 -49.67369,1.447 -2.12862,1.205 8.51553,13.255 32.1696,37.11 35.00806,34.942 52.98509,56.39 60.7908,72.537 5.67707,11.325 10.88118,32.048 10.88118,42.411 0,14.217 -6.85989,33.496 -15.37542,43.618 -13.2461,15.904 -24.36364,20.482 -52.03892,21.446 -13.00948,0.243 -27.91171,-0.239 -33.11549,-1.205 z"
       id="path15"
       style="stroke-width:1" />
    <path
       d="m 616.23897,11188.497 c -0.94614,-0.722 -1.65569,-15.422 -1.65569,-32.533 v -30.844 h 17.977 c 30.27723,0 26.96575,22.651 26.96575,-186.279 0,-137.842 -0.70955,-182.182 -2.83854,-184.351 -1.6557,-1.685 -9.46166,-2.893 -18.68647,-2.893 -24.60057,0 -23.41774,1.689 -23.41774,-33.977 0,-30.121 0.2353,-31.086 5.44038,-32.291 2.83853,-0.722 40.44861,-0.964 83.26238,-0.722 l 78.05859,0.722 v 32.533 32.533 l -20.106,1.202 -20.10591,1.208 v 185.554 185.556 l 17.74031,0.483 c 9.69846,0.24 19.15986,0.481 20.8159,0.481 2.36525,0.241 2.83854,7.471 2.36525,32.291 l -0.70955,31.808 -81.84327,0.724 c -44.94277,0.24 -82.31623,-0.24 -83.26239,-1.205 z"
       id="path17"
       style="stroke-width:1" />
    <path
       d="m 1011.2623,11188.497 c -0.9463,-0.722 -1.6559,-15.422 -1.6559,-32.533 0,-22.892 0.7096,-30.844 3.0752,-31.085 1.4191,0 10.6442,0 19.8693,0.241 16.5578,0.24 17.2675,0 19.633,-6.024 2.6019,-6.749 3.3115,-352.556 0.9462,-361.957 -1.4194,-4.816 -3.0751,-5.299 -21.9984,-6.023 l -20.3426,-0.721 v -32.533 -32.533 l 81.3702,-0.722 c 45.4155,-0.242 82.5527,0.482 83.7352,1.686 2.3657,2.411 2.8385,59.04 0.4733,62.895 -0.7095,1.207 -9.9347,2.409 -20.1061,2.409 -16.3211,0 -19.1596,0.726 -21.2886,4.823 -1.6556,3.131 -2.3654,61.931 -1.8925,184.35 0.7097,156.637 1.1828,180.013 4.2577,181.939 1.8924,1.206 11.8274,2.411 21.9985,2.411 10.4078,0 18.2137,0.964 18.45,2.41 0,1.445 0,14.94 0,30.122 0,15.182 0,28.916 0,30.123 -0.2352,2.649 -163.9225,3.613 -166.5245,0.722 z"
       id="path19"
       style="stroke-width:1" />
    <path
       d="m 1209.9565,11188.497 c -0.9462,-0.722 -1.6556,-16.628 -1.6556,-34.94 0,-24.822 0.7094,-33.258 3.0751,-33.258 1.419,-0.241 30.7501,-0.241 64.812,0 40.4487,0.242 63.8659,-0.723 66.9411,-2.408 4.7306,-2.652 4.7306,-4.578 4.7306,-216.642 0,-193.026 0.4731,-214.232 3.7847,-215.68 2.1289,-0.722 18.9231,-1.444 37.6099,-1.444 25.5464,0 34.2987,0.722 36.4273,3.374 1.8924,2.409 2.602,60.245 2.602,215.676 0,116.877 0.4732,213.51 1.1826,214.955 0.9463,1.446 26.966,2.169 67.8873,2.169 52.2757,-0.241 66.9413,0.484 68.3604,2.891 1.1827,1.689 2.1289,16.871 2.1289,33.498 0,25.785 -0.7095,30.845 -3.7845,32.05 -4.9676,1.928 -352.2095,1.928 -354.1018,-0.241 z"
       id="path21"
       style="stroke-width:1" />
    <path
       d="m 274.91055,10838.594 c -2.60193,-2.651 -0.47295,-107.236 2.60219,-129.167 1.89204,-13.254 3.54809,-35.665 3.54809,-49.641 0,-15.423 1.41909,-30.124 3.54807,-37.353 1.89239,-6.505 3.54809,-19.036 3.54809,-27.713 0,-8.915 1.6557,-20 3.54807,-24.58 1.89232,-4.819 3.54809,-13.977 3.54809,-20.241 0.23531,-6.266 1.6557,-14.217 3.54809,-17.593 1.89231,-3.375 3.54799,-10.362 3.54799,-15.662 0,-5.303 1.65614,-12.293 3.54844,-15.665 1.89239,-3.373 3.31148,-9.398 3.54809,-13.494 0,-3.856 1.65568,-9.399 3.54807,-12.05 1.8923,-2.411 3.54808,-8.434 3.54808,-13.253 0,-4.821 1.65571,-10.123 3.54809,-11.81 1.8923,-1.686 3.54809,-5.782 3.54809,-9.399 0,-3.372 1.65569,-8.434 3.54798,-10.843 1.8924,-2.649 3.54809,-7.71 3.54809,-11.326 0,-3.372 1.65578,-7.71 3.54808,-9.398 1.89239,-1.688 3.54807,-5.543 3.54807,-8.433 0,-2.893 1.65605,-6.748 3.54842,-8.435 1.89232,-1.687 3.54809,-5.542 3.54809,-8.435 0,-2.891 1.6557,-6.747 3.54809,-8.434 1.89231,-1.686 3.548,-5.542 3.548,-8.434 0,-2.892 1.65578,-6.748 3.54808,-8.435 1.89239,-1.687 3.5481,-4.819 3.5481,-7.23 0,-2.409 1.65602,-5.541 3.54807,-7.23 1.89239,-1.685 3.54842,-5.057 3.54842,-7.468 0,-2.41 1.18251,-5.062 2.60186,-5.785 1.1825,-0.964 3.31148,-4.096 4.73056,-6.747 1.18284,-2.891 3.07514,-6.988 4.25799,-8.915 1.18274,-1.93 2.83854,-5.304 3.54809,-7.231 0.94613,-1.928 3.54799,-6.746 6.14991,-10.843 2.60194,-3.857 5.67707,-9.399 7.09651,-12.049 3.54801,-6.989 7.56902,-13.495 14.90181,-23.135 3.54808,-4.82 6.3866,-9.639 6.3866,-10.603 0,-0.964 3.31174,-5.784 7.09617,-10.844 4.0213,-5.061 7.09641,-9.879 7.09641,-10.844 0,-0.965 3.5481,-6.267 7.56913,-11.807 4.25789,-5.305 8.75221,-11.328 10.1713,-13.014 1.18274,-1.687 4.25789,-5.302 6.62322,-7.953 2.12891,-2.409 4.02129,-5.543 4.02129,-6.989 0,-1.204 0.70955,-2.41 1.89238,-2.41 0.94615,0 7.09608,-6.747 13.4827,-14.939 27.91163,-34.702 77.822,-85.548 103.36838,-104.586 4.02094,-3.132 8.04232,-6.748 8.75185,-7.711 1.89231,-2.892 58.89877,-46.27 60.79115,-46.27 0.70955,0 5.44037,-3.132 10.1713,-6.746 4.73083,-3.857 10.1713,-7.7129 12.06359,-8.4345 1.89204,-0.9649 6.85956,-3.8565 10.64425,-6.5059 4.0213,-2.6524 9.22508,-5.7851 11.82701,-7.2295 2.60193,-1.4463 11.11746,-6.2666 18.92317,-10.8449 7.80603,-4.3388 18.9235,-10.3628 24.83683,-13.254 5.91368,-2.8922 12.30029,-6.2656 14.19258,-7.4706 1.89205,-1.205 5.20378,-2.8912 7.09617,-3.615 1.89238,-0.7217 6.38662,-2.8912 9.93471,-4.82 3.31139,-1.9267 7.80597,-3.3734 9.698,-3.3734 1.89239,0 4.73092,-1.6862 6.38697,-3.6139 1.6557,-1.9279 5.20379,-3.6161 8.04231,-3.6161 2.83845,0 7.33277,-1.6851 9.93462,-3.6139 2.36533,-1.9279 6.62296,-3.615 9.46141,-3.615 2.60192,0 6.85991,-1.6862 9.46175,-3.6151 2.36559,-1.9266 7.33278,-3.6149 10.64459,-3.6149 3.31141,0 8.04231,-1.6863 10.64416,-3.614 2.36534,-1.9278 7.80573,-3.616 11.8271,-3.616 3.78469,0 9.22506,-1.6852 11.82698,-3.6139 2.36526,-1.9279 8.75187,-3.6141 13.956,-3.6141 5.20377,0 12.06334,-1.6871 15.37507,-3.614 3.31148,-1.9288 10.88087,-3.3753 16.79453,-3.616 5.91334,0 15.37509,-1.4456 21.2884,-3.3734 11.35415,-3.8555 74.74691,-6.9894 76.63921,-3.8555 0.4734,0.9634 1.1828,45.5453 1.1828,99.0433 l 0.2353,97.3563 -17.2675,1.446 c -9.46167,0.723 -19.633,2.408 -22.47145,4.097 -2.83856,1.687 -9.69813,2.892 -15.37511,2.892 -5.67707,0.241 -12.77322,1.687 -16.0847,3.614 -3.31175,1.928 -9.69838,3.615 -14.19261,3.615 -4.49422,0 -10.40754,1.686 -12.77314,3.615 -2.60192,1.928 -8.04232,3.613 -12.29994,3.613 -4.02137,0 -8.75222,1.688 -10.40791,3.617 -1.65579,1.926 -5.91341,3.614 -9.22517,3.614 -3.54806,0 -8.51524,1.687 -11.11743,3.615 -2.36533,1.927 -6.38662,3.615 -8.51527,3.615 -2.12899,0 -6.85981,1.446 -10.6445,3.374 -3.54809,1.686 -10.40765,4.818 -14.90223,6.745 -4.49389,1.931 -12.29994,5.543 -17.26737,7.714 -4.96718,2.168 -10.64425,3.854 -12.77324,3.854 -6.85948,0 -39.97534,17.593 -55.35041,29.64 -4.73083,3.616 -9.69836,6.508 -10.88084,6.508 -1.18276,0 -5.44038,3.133 -9.69836,6.988 -4.02102,3.855 -14.19225,12.291 -22.23464,18.556 -8.27892,6.506 -17.504,13.977 -20.81547,16.87 -32.16961,29.398 -42.10456,38.797 -61.50068,58.796 -26.49253,26.991 -42.57751,45.306 -42.57751,48.437 0,1.206 -0.94624,2.171 -2.12899,2.171 -1.89204,0 -21.9983,28.916 -26.96548,38.557 -0.94623,1.929 -3.78468,6.986 -6.38661,10.843 -2.60194,4.097 -5.67707,9.639 -6.85958,12.53 -1.18274,2.652 -3.54833,5.785 -4.73082,6.75 -1.41945,0.722 -2.60219,3.373 -2.60219,5.783 0,2.41 -1.6558,5.783 -3.54808,7.47 -1.89239,1.687 -3.54808,4.819 -3.54808,7.229 0,2.41 -1.65571,5.542 -3.54809,7.231 -1.8924,1.685 -3.54807,4.818 -3.54807,7.227 0,2.409 -1.65571,5.543 -3.5481,7.231 -1.89228,1.687 -3.54807,5.543 -3.54807,8.433 0,2.892 -1.65571,6.749 -3.54809,8.434 -1.8923,1.688 -3.54801,5.304 -3.54801,8.194 0,2.892 -1.65604,7.471 -3.54809,10.122 -1.89271,2.41 -3.5484,6.748 -3.5484,9.638 0,2.65 -1.65572,6.989 -3.5481,9.641 -1.8923,2.41 -3.54808,7.47 -3.54808,10.843 0,3.374 -1.65569,8.194 -3.54808,10.843 -1.8923,2.411 -3.54799,8.436 -3.54799,13.014 0,4.579 -1.65578,10.603 -3.54808,13.013 -1.89239,2.65 -3.54808,9.639 -3.54808,15.665 -0.2354,6.024 -1.65606,13.736 -3.54843,17.109 -2.12864,3.856 -3.54809,13.494 -3.54809,26.508 0,11.324 -1.4191,24.821 -2.83853,30.122 -1.65571,6.266 -3.3114,44.099 -4.02094,105.55 l -1.41945,95.67 -91.77764,0.722 c -50.61981,0.241 -92.48744,0 -92.96074,-0.481 z"
       id="path23"
       style="fill:#0066ff;stroke-width:1" />
    <path
       d="m 1708.3479,10838.594 c -0.4729,-0.484 -0.9461,-34.703 -1.1824,-75.911 0,-41.208 -1.1829,-80.245 -2.3657,-86.992 -1.1826,-6.51 -3.0747,-27.232 -4.2577,-45.788 -0.946,-18.556 -3.075,-36.146 -4.4942,-39.038 -1.6557,-2.891 -2.8385,-10.603 -2.8385,-16.869 0,-6.747 -1.4193,-13.977 -3.5482,-16.628 -1.8922,-2.411 -3.5479,-8.435 -3.5479,-13.012 0,-4.578 -1.6557,-11.085 -3.548,-14.459 -1.8927,-3.374 -3.5484,-8.675 -3.5484,-12.05 0,-3.373 -1.6558,-8.193 -3.5482,-10.603 -1.8922,-2.65 -3.548,-7.71 -3.548,-11.326 0,-3.373 -1.6557,-7.711 -3.5481,-9.396 -1.8923,-1.689 -3.5481,-5.062 -3.5481,-7.712 0,-2.652 -1.4194,-7.714 -3.3119,-11.085 -1.6556,-3.616 -5.2036,-10.846 -7.3322,-16.147 -2.3657,-5.301 -5.2041,-11.325 -6.387,-13.255 -0.9459,-1.928 -2.6019,-5.301 -3.3115,-7.227 -0.7094,-1.929 -2.3653,-5.303 -3.5481,-7.231 -1.1827,-1.928 -2.8384,-5.301 -3.548,-7.229 -0.7095,-1.928 -2.3652,-5.301 -3.548,-7.23 -1.183,-1.929 -3.0752,-6.023 -4.258,-8.917 -1.4191,-2.648 -3.5481,-5.782 -4.7305,-6.747 -1.4195,-0.722 -2.6024,-3.131 -2.6024,-5.302 0,-1.926 -3.0748,-7.711 -7.0959,-12.771 -3.7848,-5.06 -7.0962,-9.881 -7.0962,-10.845 0,-0.963 -3.0752,-5.782 -6.8597,-10.601 -3.5483,-4.821 -7.0963,-9.883 -7.5693,-11.326 -4.0212,-11.568 -96.5087,-105.311 -127.9685,-129.649 -6.1502,-4.819 -14.4293,-11.808 -18.9234,-15.904 -4.2577,-3.857 -8.5154,-7.231 -9.6981,-7.231 -1.1828,0 -8.0424,-4.578 -15.3751,-10.362 -7.3327,-5.785 -15.1387,-11.326 -17.0313,-12.049 -1.8922,-0.962 -6.6231,-3.856 -10.6441,-6.505 -3.7846,-2.65 -8.7517,-5.303 -10.6443,-6.025 -1.8923,-0.724 -6.623,-3.134 -10.1712,-5.06 -3.7847,-1.687 -8.7523,-3.375 -11.1174,-3.375 -4.4943,0 -15.6117,-4.337 -29.0945,-11.085 -3.7848,-1.927 -8.7524,-3.374 -11.1175,-3.374 -2.129,0 -5.4405,-1.686 -7.0962,-3.614 -1.6561,-1.928 -5.2041,-3.614 -8.0423,-3.614 -2.6021,0 -7.0965,-1.688 -9.4618,-3.615 -2.6018,-1.928 -6.8598,-3.615 -9.6983,-3.615 -2.8382,0 -7.0962,-1.688 -9.6981,-3.614 -2.3656,-1.929 -7.8061,-3.617 -11.8269,-3.617 -3.7848,0 -9.2253,-1.685 -11.827,-3.613 -2.3657,-1.929 -8.2791,-3.615 -12.7734,-3.615 -4.494,0 -10.8807,-1.687 -14.1925,-3.615 -3.3114,-1.927 -10.4075,-3.373 -15.6117,-3.614 -5.4404,0 -13.7193,-1.688 -18.2136,-3.615 -4.7308,-1.927 -15.6118,-3.616 -24.1269,-3.616 h -15.3754 v -99.7654 -99.7671 l 36.1908,1.2051 c 22.4712,0.7238 39.2658,2.41 44.9428,4.5793 4.7306,1.9278 13.9561,3.3734 20.106,3.3734 6.1499,0.2407 13.7194,1.6872 17.0309,3.616 3.3113,1.9269 10.1713,3.614 15.375,3.614 5.2042,0 11.5907,1.6862 13.9559,3.6141 2.6021,1.9287 8.0424,3.6139 11.8271,3.6139 4.0214,0 9.4617,1.6882 11.827,3.616 2.6019,1.9277 7.3327,3.614 10.6446,3.614 3.3114,0 8.2789,1.6883 10.6443,3.6149 2.6017,1.9289 6.6231,3.6151 8.7518,3.6151 4.0212,0 7.3328,1.4455 25.3101,10.6033 4.4941,2.1694 9.9346,3.8556 12.2999,3.8556 2.1288,0 5.4404,1.6883 7.0962,3.6151 1.656,1.9277 4.7307,3.6149 7.0964,3.6149 2.3653,0 5.4405,1.6872 7.0961,3.6149 1.6559,1.9279 4.731,3.6142 7.0962,3.6142 2.3656,0 5.4405,1.6871 7.0962,3.6148 1.656,1.9279 4.7308,3.6151 7.0964,3.6151 2.3652,0 5.4404,1.6852 7.0962,3.614 1.6557,1.9278 4.9671,3.616 7.3329,3.616 2.3651,0 4.9673,1.204 5.6769,2.6495 0.9462,1.2062 4.0211,3.6161 6.6231,4.8192 2.8387,1.206 8.5153,4.3388 12.3,6.9902 4.0213,2.6494 9.225,5.7832 11.8271,7.2295 6.8597,3.6133 13.2464,7.7104 22.7077,15.1814 4.7311,3.614 9.4618,6.505 10.1716,6.505 2.1288,0 58.6619,43.137 61.9735,47.233 1.4193,1.928 3.3116,3.374 4.0212,3.374 3.7848,0 70.016,65.548 98.1647,97.357 8.0421,8.915 19.6326,23.374 25.7825,31.809 6.1503,8.434 11.8275,15.423 13.0098,15.423 0.9462,0 1.8925,1.204 1.8925,2.65 0,1.447 4.7308,8.916 10.6445,16.627 5.9132,7.712 10.6443,14.942 10.6443,15.665 0,0.963 3.0751,5.783 6.6232,10.604 3.7846,4.819 7.5692,10.362 8.2788,12.289 0.9463,1.927 3.7844,6.989 6.3867,10.843 2.6017,4.098 5.6768,9.399 7.096,12.05 1.4192,2.651 4.4944,8.193 7.0961,12.049 2.6021,4.096 5.204,8.676 5.9138,10.361 0.7095,1.447 1.6556,4.338 2.3654,6.027 0.7096,1.444 3.3116,6.264 5.9135,10.12 2.602,4.096 5.2038,8.917 6.1501,10.845 0.7095,1.926 2.3651,5.3 3.548,7.229 1.1829,1.928 2.8386,5.301 3.5481,7.229 0.7095,1.928 2.8386,6.747 4.7309,10.362 1.6557,3.856 3.3115,8.194 3.3115,10.12 0,1.687 1.6559,4.34 3.5479,6.025 1.8925,1.688 3.5484,5.301 3.5484,8.192 0,2.653 1.6558,7.231 3.5483,9.642 1.8921,2.651 3.5478,7.23 3.5478,10.12 0,2.893 1.6558,6.507 3.5482,8.194 1.8924,1.687 3.5481,5.784 3.5481,9.399 0,3.372 1.6556,8.434 3.5481,10.844 1.8923,2.65 3.548,7.469 3.548,10.845 0,3.373 1.6561,8.433 3.5484,10.842 1.8919,2.651 3.5481,8.194 3.5481,12.049 0,4.098 1.6557,9.64 3.5481,12.049 1.8924,2.652 3.548,8.676 3.548,13.254 0.2354,4.82 1.6558,11.326 3.5481,14.701 1.8923,3.374 3.5481,10.844 3.5481,16.868 0,6.025 1.6557,13.494 3.548,16.869 1.8923,3.373 3.3115,12.048 3.5482,19.52 0,7.471 1.6556,17.591 3.548,22.169 2.1289,5.062 3.5484,16.388 3.5484,26.266 0,9.639 1.1825,21.93 2.6019,27.233 1.419,5.301 3.5481,32.531 4.4942,60.244 1.1825,27.955 2.6019,70.366 3.7847,94.464 l 1.6557,44.101 -91.5412,0.481 c -50.3832,0.482 -92.2508,0.241 -92.7242,-0.24 z"
       id="path25"
       style="fill:#0066ff;stroke-width:1" />
    <path
       d="m 182.20218,9776.7157 c -1.8923,-2.1688 -3.07513,-6.5065 -2.60219,-9.6394 l 0.70989,-5.5424 h 909.49932 909.4993 l 0.7096,6.2655 c 0.4733,3.3739 -0.7096,7.4703 -2.6018,8.9163 -2.6021,2.1687 -222.1119,3.1327 -907.3707,3.6148 -841.61217,0.482 -904.29533,0.2409 -907.84342,-3.6148 z"
       id="path183"
       style="fill:#0055d4;stroke-width:1" />
    <path
       d="m 756.2866,9717.6755 c -14.42884,-5.3016 -10.88076,-24.8211 4.49432,-24.8211 12.06361,0 17.03078,12.0491 8.51552,20.7244 -5.91368,6.0244 -6.85982,6.2655 -13.00984,4.0967 z"
       id="path185"
       style="stroke-width:1" />
    <path
       d="m 1507.5405,9717.1934 c -0.9463,-1.4459 -1.4196,-12.7719 -1.1829,-25.5439 0.2354,-12.7721 -0.473,-23.8571 -1.1828,-24.5801 -0.7095,-0.9637 -3.7847,0.723 -6.8595,3.3737 -7.0965,6.5066 -14.1926,7.9526 -24.6004,5.0607 -17.7406,-4.8197 -24.8366,-18.5555 -24.8366,-46.9914 0,-17.8325 0.7094,-21.447 6.3865,-29.8814 8.279,-13.0129 20.106,-18.0737 32.6426,-14.218 4.9675,1.4459 9.6983,4.3376 10.4079,6.2656 1.4189,3.8555 7.8056,4.8196 7.8056,0.9637 0,-3.6145 9.4618,-7.7113 14.9023,-6.2653 5.2038,1.2049 5.2038,1.6869 5.2038,66.9927 v 65.7877 l -8.7521,0.7229 c -4.7307,0.4821 -9.225,-0.2409 -9.9344,-1.6869 z m -5.9138,-63.3779 c 3.3115,-4.3376 4.2579,-9.6393 4.4942,-22.4111 0,-14.9409 -0.7095,-17.8325 -5.9133,-23.6161 -12.3002,-13.2542 -29.5677,-6.0247 -33.3522,14.2177 -1.8925,11.0851 0.4731,23.1342 6.3864,30.8454 6.3866,8.4345 21.7617,8.9164 28.3849,0.9641 z"
       id="path187"
       style="stroke-width:1" />
    <path
       d="m 1763.9504,9714.5425 c -1.4192,-2.6506 -1.8924,-7.4703 -0.9461,-10.362 0.9461,-2.8916 1.8923,-30.8455 1.8923,-61.932 0.2354,-52.7748 0.4733,-56.6304 4.4942,-57.3535 2.3656,-0.482 6.86,-0.2409 10.1713,0.482 l 5.677,1.4458 -1.4189,27.472 c -1.4196,25.5438 -1.1829,27.9537 3.548,35.9059 4.2575,7.2294 10.4074,11.0852 17.5037,11.326 0.9464,0 4.4945,-2.8916 7.5693,-6.2653 5.6772,-6.2656 5.9137,-7.9524 5.9137,-38.7979 v -32.2914 l 8.9886,0.7229 8.7521,0.7231 0.7097,30.1224 c 0.946,42.4126 -3.0753,54.7026 -20.1062,60.4861 -7.0964,2.4099 -9.4617,1.9281 -20.106,-3.6146 -6.3864,-3.3737 -12.3,-6.2655 -13.0097,-6.2655 -0.7094,0 -0.7094,11.5671 -0.2354,26.0258 l 0.7095,25.7851 -8.7518,0.7229 c -6.8597,0.4821 -9.2251,-0.2409 -11.3541,-4.3378 z"
       id="path189"
       style="stroke-width:1" />
    <path
       d="m 1863.2978,9717.6755 c -9.4618,-3.3739 -12.7733,-18.0737 -4.9675,-22.4112 15.3752,-8.1935 29.804,6.2653 17.9768,18.3145 -5.9132,6.0244 -6.8593,6.2655 -13.0093,4.0967 z"
       id="path191"
       style="stroke-width:1" />
    <path
       d="m 1054.8012,9710.928 c -18.2138,-8.1934 -25.0734,-26.9898 -14.6655,-40.4849 6.8596,-8.6753 5.9132,-12.29 -5.9136,-24.339 -10.1713,-10.3623 -10.6442,-11.8081 -10.6442,-24.3391 0,-20.4833 8.279,-31.0864 28.3849,-36.6291 13.7192,-3.8556 28.6212,-0.4818 42.3404,9.3982 l 10.1714,7.4706 8.0427,-8.6755 c 14.1924,-15.4227 35.0078,-14.4589 33.5887,1.4461 -0.7096,6.9883 -1.4196,7.7113 -8.9885,7.7113 -9.2251,0.241 -21.2887,7.2293 -21.2887,12.29 0,1.6869 3.0748,7.7114 6.8594,13.4949 8.2791,12.7721 14.4293,31.0866 14.4293,43.3765 0,7.4705 -1.1828,9.8803 -5.677,11.8082 -8.9885,4.3375 -16.5581,-1.2049 -14.6655,-10.3623 2.1286,-10.362 -3.0753,-38.0749 -7.333,-39.7617 -1.8923,-0.7231 -7.096,2.4096 -12.0635,7.4703 -4.7308,4.8197 -10.8807,10.3623 -13.4828,12.29 -4.7308,3.6148 -4.4941,3.8558 2.6021,10.3621 13.956,12.2902 16.321,24.5801 7.8054,37.1111 -8.9883,12.7722 -24.6,16.8688 -39.502,10.3623 z m 21.0523,-15.6637 c 3.0748,-1.928 4.4941,-5.0607 4.4941,-11.3261 0,-17.5917 -17.2673,-24.8211 -24.3639,-10.1214 -4.0209,8.9164 -2.8385,15.4229 3.7847,20.2426 5.9136,4.3375 9.6981,4.5785 16.0851,1.2049 z m -4.0214,-50.6062 c 9.6982,-6.0245 22.7079,-22.4111 22.7079,-28.4357 0,-6.5065 -16.3213,-14.9407 -29.0944,-14.9407 -18.9232,0 -28.385,16.1458 -19.3967,33.7373 3.5483,6.7474 12.0638,14.4589 16.3215,14.4589 1.1827,0 5.4404,-2.1689 9.4617,-4.8198 z"
       id="path193"
       style="stroke-width:1" />
    <path
       d="m 191.19073,9706.8313 c -2.60194,-6.9884 -0.94615,-11.0851 4.73059,-12.7719 4.25788,-1.446 4.49449,-4.3376 4.49449,-45.7864 0,-41.4488 -0.23531,-44.3405 -4.49449,-45.7864 -5.67674,-1.687 -7.33253,-5.7835 -4.73059,-12.5309 1.65571,-5.0607 3.07479,-5.3016 20.10591,-4.5787 17.74042,0.7228 21.9983,2.8918 22.23466,10.6031 0,1.6868 -2.60193,4.3376 -5.91334,5.7835 l -5.91366,2.6508 v 44.0996 44.3404 l 5.91366,1.4458 c 4.49423,1.2051 5.91334,3.1328 5.91334,8.1934 0,8.4344 -3.07479,9.6393 -23.89069,9.6393 -14.90179,0 -16.55784,-0.482 -18.44988,-5.3016 z"
       id="path195"
       style="stroke-width:1" />
    <path
       d="m 1206.6605,9709.2411 c -1.8923,-2.8919 -1.8923,-120.0085 0,-121.6953 1.419,-1.446 56.2964,-2.6508 60.0812,-1.205 4.4944,1.687 3.5482,14.7 -1.1827,16.6279 -2.129,0.9638 -12.0638,1.6867 -21.7617,1.6867 l -17.977,0.2409 v 50.6063 c -0.2352,27.9536 -0.9463,52.0516 -1.8923,53.7385 -2.3657,3.6147 -14.9023,3.8557 -17.2675,0 z"
       id="path197"
       style="stroke-width:1" />
    <path
       d="m 704.24769,9699.1198 c -4.49424,-2.6508 -6.15027,-6.0244 -7.09616,-13.9769 -0.94616,-9.1571 -1.8923,-10.3621 -7.56938,-11.085 -10.64424,-1.205 -7.33276,-14.9408 3.31148,-14.9408 3.78469,0 4.2579,-2.6508 4.2579,-29.6407 0,-32.2913 1.65577,-37.1111 14.19231,-43.8583 13.24645,-6.9884 26.01961,-2.41 26.01961,9.3981 0,5.5426 -0.94617,6.2655 -8.04259,6.2655 -4.49422,0 -8.75185,0.964 -9.4614,2.1688 -0.70989,1.2049 -1.6558,13.977 -1.89239,28.1948 l -0.7099,26.267 9.46176,1.2048 c 8.27892,0.9639 9.46176,2.1688 10.1713,7.9523 0.70956,6.7474 -0.94615,7.7114 -13.00983,6.5064 -5.91333,-0.4819 -6.14993,0.241 -5.44039,17.5917 0.47321,12.5311 -2.60193,14.2179 -14.19232,7.9523 z"
       id="path199"
       style="stroke-width:1" />
    <path
       d="m 280.83972,9675.7448 c -3.31182,-1.205 -7.33277,-4.0968 -8.98855,-6.5065 -3.07511,-3.8558 -3.54833,-3.6147 -6.85981,1.4458 -3.78468,5.5425 -11.11747,6.7475 -17.03078,3.1327 -4.25799,-2.8916 -3.78477,-84.5842 0.47285,-87.476 4.49431,-2.8916 15.84839,-2.1687 16.08463,1.205 0.23539,1.446 0.23539,14.4589 -0.2353,28.6766 -0.47322,22.8933 0,26.749 4.73092,34.4603 6.85948,11.0851 18.92317,12.531 26.96548,2.8919 4.02127,-4.8196 4.25762,-8.4344 3.07514,-34.7014 -1.18284,-32.5324 -0.23539,-35.424 11.82698,-33.9782 l 6.62323,0.7231 v 36.1469 c 0,40.9669 -1.89238,46.9913 -16.55791,53.2568 -9.22507,3.8556 -11.82701,3.8556 -20.10591,0.723 z"
       id="path201"
       style="stroke-width:1" />
    <path
       d="m 371.43487,9673.335 c -9.46175,-4.5787 -10.408,-4.8196 -13.95598,-0.964 -2.129,2.1688 -6.62324,3.6148 -10.17133,3.1328 l -6.15,-0.723 v -44.5815 -44.5812 l 6.62287,-0.7231 c 11.82709,-1.4458 13.00984,1.6869 11.82709,31.5685 -0.94588,24.0981 -0.47294,27.7127 3.78468,34.9421 4.25789,6.5067 6.15028,7.7115 14.4292,7.7115 13.24618,0 14.90189,-4.5786 15.13848,-42.1716 l 0.23538,-31.3274 h 9.46142 9.46175 l 0.70954,29.8816 c 0.47321,22.6521 -0.23538,32.7733 -3.31147,41.6894 -6.15,19.0375 -20.81556,25.3033 -38.08292,16.1459 z"
       id="path203"
       style="stroke-width:1" />
    <path
       d="m 458.24524,9675.5038 c -29.33107,-8.4344 -38.79282,-55.9075 -15.84828,-80.7285 13.95598,-15.1818 39.02908,-15.6638 54.4045,-0.9639 12.06334,11.0849 16.55758,23.375 15.13849,39.7617 -1.89239,23.857 -12.0636,38.557 -29.33108,42.6535 -10.88085,2.4099 -13.71938,2.4099 -24.36363,-0.7228 z m 27.67513,-21.6883 c 4.73082,-4.5785 5.44072,-7.4703 5.44072,-22.1702 0,-14.9408 -0.7099,-18.0734 -5.91368,-23.857 -8.51561,-9.1573 -20.3426,-8.9164 -29.80402,0.482 -6.15027,6.2654 -6.8598,8.6752 -6.8598,21.4471 0,12.049 0.94612,15.9048 6.1499,21.9293 4.96753,6.0245 7.80606,7.4704 15.84839,7.4704 6.62321,0 11.35405,-1.687 15.13849,-5.3016 z"
       id="path205"
       style="stroke-width:1" />
    <path
       d="m 623.82385,9675.2628 c -8.27891,-2.1689 -11.11747,-4.3376 -12.77314,-9.6392 -3.5481,-10.121 0.70954,-12.7722 12.77314,-7.9524 5.20377,2.1689 12.06369,3.8555 14.90187,3.8555 6.38654,0 16.79452,-10.1211 15.37543,-14.6996 -0.47329,-1.6869 -8.75221,-4.3377 -18.68691,-6.0246 -15.13883,-2.6507 -18.45023,-4.0966 -25.07344,-11.567 -13.00949,-14.218 -9.93469,-34.7014 6.38663,-43.1357 9.93495,-5.0605 19.86964,-3.8555 27.91196,3.8559 l 5.67699,5.3015 3.54808,-5.3015 c 4.02103,-6.2656 9.6981,-6.9887 15.37508,-2.4099 3.31149,2.4099 3.54809,7.4704 2.129,38.316 -1.65606,32.7733 -2.129,36.147 -7.33278,41.6896 -5.20413,5.7836 -18.21361,11.0851 -26.01958,10.6033 -1.89238,0 -8.27901,-1.4459 -14.19233,-2.8919 z m 30.2773,-52.7748 c 0.47288,-3.8558 -1.41943,-9.3983 -4.49433,-13.9768 -7.09641,-9.6393 -21.28874,-10.3622 -26.96574,-1.4458 -4.96752,7.7112 -2.36567,13.2537 9.22509,18.5555 13.48277,6.2654 21.28874,5.3015 22.23498,-3.1329 z"
       id="path207"
       style="stroke-width:1" />
    <path
       d="m 818.49691,9676.2266 c -19.15985,-5.0605 -28.8582,-20.2423 -29.09447,-45.7862 0,-25.785 9.22507,-40.2438 30.27722,-46.2683 30.75016,-8.6754 58.18894,23.6162 49.91003,59.0403 -2.83854,12.5308 -11.11753,26.2669 -18.21362,30.1226 -6.15002,3.3738 -24.36364,5.0607 -32.87916,2.8916 z m 27.67529,-24.821 c 9.46149,-15.6638 8.98855,-30.1226 -1.41935,-42.8944 -8.04232,-9.6393 -21.05216,-10.1214 -29.56742,-0.964 -4.96752,5.3016 -5.67707,8.4343 -5.67707,22.6521 0,14.2179 0.70955,17.3507 5.67707,22.6521 4.49423,4.8198 8.04232,6.2657 16.08463,6.2657 8.98846,0 10.88084,-0.964 14.90214,-7.7115 z"
       id="path209"
       style="stroke-width:1" />
    <path
       d="m 920.91905,9673.8168 c -8.51558,-4.5785 -9.46175,-4.5785 -14.90214,-0.9639 -4.25762,2.8919 -7.33284,3.3737 -11.82708,1.6869 l -6.14992,-2.1688 0.47294,-41.9306 c 0.2353,-23.1342 0.94614,-43.1357 1.65603,-44.0996 1.41912,-2.4098 13.00951,-2.4098 16.79419,0 1.89229,1.205 2.60184,11.0851 2.36559,32.2914 -0.4733,27.713 0,31.0867 4.25764,35.4243 2.60185,2.6508 6.85982,4.8196 9.46141,5.0606 17.03112,1.687 20.34258,-5.3016 19.86965,-42.1716 -0.2353,-14.9408 0.47293,-28.4356 1.18275,-29.8816 2.36533,-3.6147 14.42894,-3.3738 17.50382,0.4819 1.41935,1.6868 1.65603,15.6636 0.70981,38.0751 -1.8923,39.5208 -4.25791,45.5452 -19.39638,50.1239 -11.11745,3.3737 -11.35405,3.3737 -21.99831,-1.928 z"
       id="path211"
       style="stroke-width:1" />
    <path
       d="m 1302.6958,9675.0218 c -25.3098,-9.3982 -34.0615,-52.2927 -15.6115,-76.8728 10.4075,-13.9769 23.8904,-18.0736 43.0504,-13.254 13.7196,3.3738 13.9557,3.3738 14.6653,12.5309 0.7099,9.1574 0.7099,9.1574 -5.9133,7.4704 -3.5481,-0.9638 -12.0637,-2.1687 -18.6866,-2.8916 -11.8274,-1.2051 -12.5369,-0.723 -18.6868,7.4703 -10.4079,13.9769 -7.8062,15.9048 22.2349,15.9048 24.8365,0 25.7826,0.2411 26.9653,5.5426 1.8925,7.2294 -1.6556,24.339 -6.3864,31.5684 -8.279,13.013 -26.256,18.3145 -41.6313,12.531 z m 24.6004,-18.5555 c 4.0211,-3.3738 6.1501,-6.9884 5.6768,-10.3622 -0.7096,-4.3377 -2.8383,-5.3016 -14.9019,-6.5064 -7.8059,-0.7231 -15.6117,-0.9641 -17.0311,-0.2411 -8.9885,3.1328 3.5481,22.1701 14.1927,22.1701 3.0748,0 8.5155,-2.4096 12.0635,-5.0604 z"
       id="path213"
       style="stroke-width:1" />
    <path
       d="m 1384.5391,9675.9858 c -9.4618,-1.9279 -15.6117,-7.4704 -15.6117,-14.4591 0,-7.7112 4.4941,-9.157 13.7193,-4.5784 12.0636,6.5063 20.3426,5.7836 26.2563,-1.6869 5.4403,-7.2294 3.3114,-13.0129 -4.7309,-13.0129 -10.8809,0 -28.8582,-5.7836 -34.062,-10.8441 -6.6231,-6.9886 -9.2251,-17.5917 -7.0962,-28.195 2.1288,-10.3621 6.8596,-15.6636 17.0308,-19.0373 7.3328,-2.4098 9.9347,-1.9278 19.6328,2.6507 10.8811,5.0606 11.8273,5.3015 15.6117,1.446 2.129,-2.169 6.1502,-3.8558 8.9888,-3.3738 4.9672,0.7231 4.9672,1.4458 4.021,39.28 -0.9462,43.3764 -2.3652,46.9911 -18.9231,51.8108 -9.4618,2.6507 -11.5905,2.6507 -24.8368,0 z m 28.3848,-49.4012 c 2.129,-5.3016 -0.4729,-13.7358 -6.1501,-20.0013 -10.4078,-11.3261 -32.406,-3.1328 -26.7291,9.8802 4.9675,10.8439 29.8041,18.3146 32.8792,10.1211 z"
       id="path215"
       style="stroke-width:1" />
    <path
       d="m 1570.2237,9675.2628 c -18.2137,-6.7474 -28.1484,-31.3275 -23.8908,-58.5583 4.0213,-25.0622 24.6002,-38.557 48.9641,-32.5324 14.1923,3.8557 17.2675,6.2655 17.2675,14.6998 0,8.9164 -1.8924,10.121 -9.6981,6.0244 -3.5483,-1.9276 -11.354,-3.6146 -17.0311,-3.6146 -8.279,0 -11.5905,1.4459 -16.7947,6.9886 -3.7842,3.8554 -6.1497,8.9161 -5.6767,11.5669 0.7097,3.8557 3.7848,4.3378 27.4389,5.0606 28.8578,0.7231 27.675,0 26.4924,16.1458 -0.7098,11.567 -9.9349,28.6767 -17.2676,32.0503 -9.698,4.8197 -20.8156,5.5426 -29.8039,2.1689 z m 22.9443,-17.5916 c 5.4404,-3.8557 7.3328,-16.6276 2.8385,-18.3146 -1.1828,-0.2409 -8.9884,-0.2409 -17.0307,0.482 -17.7408,1.4459 -20.106,5.7836 -8.9889,15.4228 8.5156,7.2294 15.6117,7.9523 23.1811,2.4098 z"
       id="path217"
       style="stroke-width:1" />
    <path
       d="m 1669.3342,9676.7088 c -1.8922,-0.723 -5.2038,-2.892 -7.5693,-4.8196 -3.3116,-3.1329 -4.4943,-2.8919 -9.9348,0.4818 -3.7847,2.6508 -8.2788,3.6148 -11.8269,2.6508 l -5.9137,-1.446 0.4733,-43.8584 c 0.4729,-48.1961 0.4729,-47.9551 15.1385,-44.0993 l 6.1503,1.4458 -1.1829,23.1341 c -1.8924,34.9422 2.3654,46.2683 17.2674,46.5093 7.3329,0 11.5905,4.0968 11.5905,11.3261 0,4.3376 -6.6234,11.0851 -9.9347,10.1213 -0.4731,0 -2.3652,-0.7231 -4.2577,-1.4459 z"
       id="path219"
       style="stroke-width:1" />
    <path
       d="m 1711.9116,9675.9858 c -11.8271,-2.8919 -21.2888,-14.6999 -21.2888,-26.026 0.2352,-12.049 4.4945,-17.3507 21.9982,-25.7848 13.2465,-6.5067 14.6655,-7.9526 14.6655,-14.4591 0,-7.2293 0,-7.2293 -13.0094,-6.9883 -7.0966,0.2411 -16.085,1.2049 -19.6331,2.1687 -6.6233,1.687 -6.6233,1.687 -5.9137,-7.4704 0.7101,-8.6753 1.4195,-9.6391 10.4079,-12.7718 14.6655,-5.3015 34.2987,-0.482 42.341,10.3621 8.9883,12.0492 8.0423,24.098 -2.6019,34.2193 -4.4943,4.5787 -9.4617,8.1932 -10.8808,8.1932 -1.1829,0 -5.9137,1.687 -10.4081,3.8558 -16.7943,8.1934 -6.1499,24.098 12.3,18.3147 4.7309,-1.4461 9.9351,-1.928 11.8273,-1.205 4.2578,1.6868 4.2578,11.3261 -0.2353,15.1816 -4.4942,3.8558 -19.3963,5.0607 -29.5677,2.41 z"
       id="path221"
       style="stroke-width:1" />
    <path
       d="m 1932.3675,9673.5758 c -9.4614,-4.3375 -10.4079,-4.3375 -17.0309,-0.4819 -13.9559,8.1935 -14.4287,6.2655 -14.6656,-62.6551 -0.4731,-41.9305 0.2355,-62.8959 2.1291,-64.8237 1.4191,-1.4457 5.4403,-2.1688 9.2249,-1.6869 l 6.8597,0.7231 0.2352,22.893 c 0,12.5311 0.2355,23.8573 0.4732,24.821 0.2352,1.205 4.7308,-0.4819 9.6982,-3.3735 17.7405,-10.1215 35.0078,-3.1329 44.9426,18.0736 7.0964,15.9045 8.2789,26.0257 4.0212,40.4846 -4.4941,15.9046 -12.0635,25.3029 -22.7078,28.4358 -10.8809,3.1327 -11.3542,3.1327 -23.181,-2.41 z m 22.9444,-22.6522 c 6.3868,-10.1211 6.3868,-25.3027 0.2354,-37.3517 -4.9674,-9.8805 -8.5155,-12.2902 -18.6868,-12.2902 -13.2462,0 -21.7616,17.8325 -18.2137,37.5929 2.3656,12.531 10.8808,20.2425 22.4717,20.2425 8.0423,0 9.9346,-1.2048 14.1923,-8.1935 z"
       id="path223"
       style="stroke-width:1" />
    <path
       d="m 520.69216,9672.612 c -0.7099,-2.1689 0.23531,-7.4703 2.12863,-11.8079 2.129,-4.0968 7.56939,-20.2425 12.30028,-35.4243 12.06327,-39.039 12.53657,-39.7617 23.65402,-39.7617 9.9347,0 8.51525,-2.1689 21.5251,33.2551 8.75211,23.6162 11.35405,30.1226 15.84828,40.9669 5.67707,13.2538 3.78468,16.6277 -8.75186,15.6637 -8.04266,-0.723 -9.22507,-2.6509 -14.4292,-23.6162 -6.15001,-25.0621 -12.06369,-42.1717 -14.42893,-41.6896 -1.18283,0.2408 -5.20377,13.2539 -8.98855,28.9177 -3.548,15.6637 -7.56937,30.1226 -8.51552,32.0504 -2.36524,5.0605 -18.45021,6.2655 -20.34225,1.4459 z"
       id="path225"
       style="stroke-width:1" />
    <path
       d="m 754.39431,9673.8168 c -4.02129,-2.4098 -4.96753,-83.3792 -1.18285,-87.2349 1.41945,-1.446 5.44047,-2.1689 9.22516,-1.6869 l 6.85982,0.7231 v 44.5812 44.5815 l -5.91368,0.723 c -3.31138,0.241 -7.33275,-0.482 -8.98845,-1.687 z"
       id="path227"
       style="stroke-width:1" />
    <path
       d="m 1859.7497,9674.5398 c -2.8385,-1.2048 -3.0751,-82.8975 -0.2352,-87.2351 2.365,-3.8555 14.9017,-3.6146 16.0844,0.2411 0.4733,1.446 0.9462,21.9292 0.7097,45.0633 v 42.1717 l -7.0962,0.482 c -4.021,0.241 -8.0423,0 -9.4614,-0.723 z"
       id="path229"
       style="stroke-width:1" />
    <path
       d="m 181.01943,9501.7565 c -2.12899,-4.3375 -0.70955,-13.7358 2.36524,-13.7358 0.94624,0 409.45206,0 907.60733,0 h 905.9514 l 2.1286,5.0606 c 1.4194,3.1327 1.4194,6.2654 0,8.4345 -1.8924,3.1324 -121.8186,3.6145 -908.7895,4.0965 -868.81454,0.482 -906.89783,0.2409 -909.26307,-3.8558 z"
       id="path231"
       style="fill:#0066ff;stroke-width:1" />
  </g>
</svg>
